<?xml version="1.0" standalone="no"?>
<!DOCTYPE svg PUBLIC "-//W3C//DTD SVG 20010904//EN"
 "http://www.w3.org/TR/2001/REC-SVG-20010904/DTD/svg10.dtd">
<svg version="1.0" xmlns="http://www.w3.org/2000/svg"
 width="633.000000pt" height="230.000000pt" viewBox="0 0 633.000000 230.000000"
 preserveAspectRatio="xMidYMid meet">
<metadata>
Created by potrace 1.14, written by Peter Selinger 2001-2017
</metadata>
<g transform="translate(0.000000,230.000000) scale(0.100000,-0.100000)"
fill="#000000" stroke="none">
<path d="M1955 2289 c-16 -5 -113 -31 -215 -58 -597 -159 -645 -173 -661 -191
-9 -10 -42 -64 -73 -119 l-57 -101 -137 0 -137 0 -336 -335 -335 -336 335
-334 336 -335 137 0 137 0 57 -101 c31 -55 64 -109 73 -119 15 -18 104 -44
646 -186 94 -25 192 -52 219 -59 27 -8 51 -13 54 -11 4 5 127 457 204 752 l43
161 -68 112 c-37 62 -67 116 -67 121 0 5 30 59 67 121 l68 112 -43 161 c-44
171 -189 709 -198 739 -6 19 -7 19 -49 6z m-295 -345 c0 -3 -89 -158 -197
-345 l-197 -339 -398 0 c-219 0 -398 3 -398 8 0 4 114 121 253 260 l253 253
324 83 c317 82 360 92 360 80z m234 -195 c13 -46 56 -200 96 -341 l72 -258
-72 -257 c-105 -377 -119 -426 -123 -429 -5 -5 -397 673 -397 686 0 13 392
691 397 686 2 -1 14 -41 27 -87z m-430 -1050 c109 -187 195 -343 192 -346 -3
-3 -157 33 -343 80 l-337 86 -253 253 c-139 139 -253 256 -253 260 0 5 179 8
398 8 l398 0 198 -341z"/>
<path d="M4557 1924 c-4 -4 -7 -49 -7 -101 l0 -93 115 0 116 0 -3 98 -3 97
-106 3 c-58 1 -108 -1 -112 -4z"/>
<path d="M5008 1768 l-3 -163 -78 -3 -78 -3 3 -82 3 -82 78 -3 77 -3 0 -374 0
-375 110 0 110 0 0 375 0 375 75 0 c54 0 75 4 74 13 0 6 -13 44 -28 82 l-29
70 -46 3 -46 3 -2 162 -3 162 -107 3 -108 3 -2 -163z"/>
<path d="M4000 1621 c-53 -17 -97 -45 -137 -89 l-43 -45 0 57 0 56 -100 0
-100 0 0 -460 0 -460 110 0 110 0 0 293 0 293 28 55 c35 69 92 101 179 101 94
0 138 -24 177 -97 20 -38 21 -56 24 -342 l4 -303 109 0 109 0 0 310 c0 189 -4
330 -11 362 -25 121 -90 207 -188 251 -35 16 -70 22 -146 24 -55 1 -111 -1
-125 -6z"/>
<path d="M2672 1273 c4 -309 6 -332 27 -397 19 -57 33 -80 80 -126 74 -75 131
-95 261 -95 116 1 179 25 240 91 l40 44 0 -55 0 -55 105 0 105 0 0 460 0 460
-109 0 -110 0 -3 -297 c-3 -282 -4 -300 -24 -338 -40 -73 -97 -105 -189 -105
-93 0 -146 34 -181 115 -15 34 -18 83 -22 333 l-4 292 -110 0 -110 0 4 -327z"/>
<path d="M4552 1143 l3 -458 110 0 110 0 3 458 2 457 -115 0 -115 0 2 -457z"/>
<path d="M5403 1593 c3 -5 82 -205 176 -445 165 -419 171 -438 158 -465 -8
-15 -35 -77 -60 -138 -25 -60 -52 -127 -61 -148 l-16 -37 118 0 117 0 77 197
c42 109 131 337 198 508 67 171 140 357 162 415 22 58 45 108 51 112 7 4 -45
8 -114 8 l-126 0 -78 -217 c-141 -391 -141 -392 -154 -363 -12 28 -211 571
-211 577 0 1 -54 3 -121 3 -66 0 -118 -3 -116 -7z"/>
</g>
</svg>
