<?xml version="1.0" standalone="no"?>
<!DOCTYPE svg PUBLIC "-//W3C//DTD SVG 20010904//EN"
 "http://www.w3.org/TR/2001/REC-SVG-20010904/DTD/svg10.dtd">
<svg version="1.0" xmlns="http://www.w3.org/2000/svg"
 width="354.000000pt" height="354.000000pt" viewBox="0 0 354.000000 354.000000"
 preserveAspectRatio="xMidYMid meet">
<metadata>
Created by potrace 1.14, written by Peter Selinger 2001-2017
</metadata>
<g transform="translate(0.000000,354.000000) scale(0.100000,-0.100000)"
fill="#000000" stroke="none">
<path d="M845 2869 c-4 -6 -13 -8 -21 -5 -23 9 -17 -12 40 -139 60 -134 44
-122 181 -139 28 -3 61 -8 75 -11 118 -21 170 -29 205 -29 17 -1 32 -4 35 -7
4 -4 348 -62 505 -84 17 -2 44 -6 60 -9 45 -7 336 -56 365 -61 14 -2 43 -7 65
-10 38 -6 120 -20 175 -30 14 -2 43 -7 65 -10 22 -3 51 -8 65 -10 14 -3 48 -7
75 -11 28 -3 54 -9 58 -13 5 -5 22 -5 38 -2 26 5 37 21 90 120 50 95 56 113
39 108 -11 -3 -20 -1 -20 5 0 6 -13 8 -30 6 -16 -3 -30 -2 -30 1 0 5 -169 35
-265 47 -29 3 -97 14 -122 18 -11 3 -38 7 -59 11 -44 6 -34 5 -244 40 -85 15
-168 28 -185 31 -136 18 -561 89 -563 94 -1 4 -16 4 -32 2 -18 -2 -30 0 -30 7
0 6 -6 8 -14 5 -11 -4 -138 13 -226 31 -22 4 -52 9 -130 21 -14 2 -47 6 -75
10 -27 3 -58 10 -67 15 -11 6 -19 5 -23 -2z"/>
<path d="M650 2743 c-12 -26 -25 -57 -30 -68 -7 -18 -39 -210 -56 -335 -3 -25
-7 -54 -9 -65 -8 -45 -16 -92 -60 -360 -26 -154 -49 -293 -51 -310 -2 -16 -11
-73 -19 -125 -15 -97 -16 -210 -2 -210 14 0 202 98 223 116 18 16 26 48 48
194 15 96 29 186 31 200 6 35 55 331 60 355 2 11 6 40 9 65 4 25 13 83 21 130
9 47 17 96 19 110 3 14 7 52 11 85 l6 60 -71 85 c-115 136 -104 130 -130 73z"/>
<path d="M2987 2327 l-102 -93 -18 -115 c-10 -63 -36 -222 -58 -354 -42 -252
-45 -269 -52 -325 -12 -91 -29 -196 -34 -210 -4 -8 -5 -21 -4 -29 1 -7 -1 -20
-4 -30 -4 -9 -9 -41 -11 -71 l-5 -55 86 -93 c48 -50 90 -92 93 -92 9 1 42 67
42 85 0 7 4 15 8 17 7 3 44 213 59 333 2 22 7 52 9 67 3 16 7 40 9 55 3 16 25
152 50 303 25 151 48 291 51 310 3 19 12 75 20 124 15 88 16 216 2 216 -4 0
-10 11 -14 25 -3 14 -10 25 -16 25 -5 0 -55 -42 -111 -93z"/>
<path d="M2529 2175 c-14 -8 -32 -28 -39 -45 -10 -25 -10 -34 4 -55 26 -39 62
-52 93 -35 14 8 32 27 41 42 14 24 14 30 2 53 -8 15 -27 33 -42 41 -32 17 -27
17 -59 -1z"/>
<path d="M1877 2163 c-4 -3 -7 -158 -7 -344 0 -373 -5 -349 68 -349 19 0 43 7
52 15 15 13 20 13 48 -1 132 -65 305 15 348 162 40 137 -29 283 -152 325 -51
17 -138 15 -191 -4 l-43 -15 0 97 c0 62 -4 101 -12 109 -13 13 -100 17 -111 5z
m313 -311 c142 -71 79 -285 -80 -269 -35 4 -51 13 -77 41 -30 33 -33 41 -33
100 0 55 4 69 27 96 44 53 100 64 163 32z"/>
<path d="M1007 1979 c-137 -33 -220 -196 -172 -339 21 -62 72 -123 129 -153
56 -29 155 -29 212 0 39 21 40 21 52 2 17 -27 97 -27 112 0 15 29 14 463 -2
479 -17 17 -88 15 -108 -3 -15 -14 -21 -14 -52 -1 -47 20 -125 27 -171 15z
m151 -129 c43 -27 66 -80 59 -143 -11 -124 -139 -167 -229 -77 -35 34 -38 42
-38 92 0 116 113 186 208 128z"/>
<path d="M1689 1975 c-25 -8 -54 -24 -64 -35 -22 -25 -35 -26 -35 -2 0 28 -21
42 -61 42 -68 0 -69 -4 -69 -255 0 -190 2 -226 16 -239 18 -19 85 -21 102 -4
8 8 12 53 13 132 0 67 5 136 12 155 16 46 54 72 118 79 l54 7 3 59 c4 79 -6
86 -89 61z"/>
<path d="M2511 1966 c-16 -20 -16 -462 0 -482 14 -17 81 -18 97 -2 17 17 17
469 0 486 -16 16 -83 15 -97 -2z"/>
<path d="M719 1342 c-16 -2 -60 -38 -124 -102 -90 -90 -98 -104 -59 -99 3 0
11 -7 18 -17 9 -11 21 -15 35 -11 11 3 21 1 21 -5 0 -6 13 -8 30 -6 17 3 30 2
30 -1 0 -5 169 -35 265 -47 29 -3 97 -14 122 -18 11 -3 38 -7 59 -11 52 -8 65
-10 244 -40 85 -14 166 -27 180 -30 14 -2 147 -23 295 -46 149 -23 271 -45
273 -49 1 -4 16 -4 32 -2 17 2 30 0 30 -5 0 -5 14 -8 30 -5 18 2 30 0 30 -7 0
-6 7 -8 15 -5 13 5 56 0 165 -21 14 -2 43 -7 65 -10 22 -3 51 -8 65 -10 14 -3
48 -7 75 -11 28 -3 56 -9 64 -13 20 -12 62 11 55 29 -4 8 -22 60 -40 115 -19
55 -41 105 -50 111 -8 7 -41 15 -72 19 -31 4 -66 9 -77 10 -33 5 -97 15 -159
26 -32 6 -64 8 -72 5 -8 -3 -14 -1 -14 5 0 7 -12 9 -30 7 -16 -2 -31 -2 -32 2
-3 6 -357 65 -508 86 -25 3 -54 7 -65 9 -113 20 -381 65 -416 70 -39 5 -122
19 -186 31 -13 3 -38 7 -55 10 -18 2 -44 7 -58 9 -14 2 -50 7 -80 10 -30 3
-59 9 -65 13 -5 4 -22 6 -36 4z"/>
</g>
</svg>
